<?xml version="1.0" standalone="no"?>
<!DOCTYPE svg PUBLIC "-//W3C//DTD SVG 20010904//EN"
 "http://www.w3.org/TR/2001/REC-SVG-20010904/DTD/svg10.dtd">
<svg version="1.0" xmlns="http://www.w3.org/2000/svg"
 width="1600.000000pt" height="1600.000000pt" viewBox="0 0 1600.000000 1600.000000"
 preserveAspectRatio="xMidYMid meet">
<metadata>
Created by potrace 1.14, written by Peter Selinger 2001-2017
</metadata>
<g transform="translate(0.000000,1600.000000) scale(0.100000,-0.100000)"
fill="#000000" stroke="none">
<path d="M12059 11976 c-2 -2 -35 -7 -74 -10 -83 -6 -130 -12 -210 -26 -96
-18 -100 -18 -100 -20 0 -1 -9 -3 -20 -4 -112 -14 -520 -154 -571 -197 -8 -6
-14 -8 -14 -3 0 5 -4 4 -8 -1 -4 -6 -32 -23 -62 -39 -64 -34 -224 -131 -243
-146 -6 -6 -32 -24 -57 -40 -25 -16 -54 -37 -65 -47 -11 -10 -31 -26 -44 -35
-70 -49 -255 -226 -341 -327 -25 -29 -50 -58 -55 -64 -41 -47 -185 -262 -185
-276 0 -5 -7 -16 -15 -24 -18 -18 -112 -209 -144 -292 -13 -33 -29 -73 -36
-90 -15 -35 -35 -98 -34 -105 0 -3 -5 -18 -11 -35 -7 -16 -13 -37 -15 -45 -3
-8 -11 -40 -19 -70 -8 -30 -17 -66 -20 -80 -3 -14 -7 -36 -10 -50 -21 -97 -30
-151 -29 -177 1 -13 -2 -23 -6 -23 -3 0 -6 -12 -6 -27 -1 -16 -5 -59 -9 -98
-4 -38 -10 -126 -13 -195 -2 -69 -4 -129 -4 -135 -3 -50 13 -318 21 -367 5
-35 12 -79 15 -99 5 -30 44 -178 59 -224 49 -149 166 -362 264 -479 41 -48
249 -256 257 -256 4 0 24 -14 44 -30 164 -137 450 -289 736 -390 66 -23 129
-46 140 -50 34 -13 192 -58 217 -61 2 0 21 -4 43 -10 96 -23 345 -33 440 -17
102 17 267 68 289 89 6 5 18 9 28 9 10 0 18 4 18 10 0 5 11 12 25 16 14 3 25
10 25 15 0 5 5 9 11 9 44 0 389 319 389 359 0 5 4 11 8 13 12 4 142 193 142
206 0 6 4 12 8 14 8 3 44 65 124 216 22 41 52 106 68 145 29 72 59 218 53 253
-1 11 -5 44 -7 74 -3 31 -14 81 -26 113 -12 31 -21 60 -22 64 0 5 -9 20 -19
35 -10 14 -19 31 -19 37 0 6 -4 11 -10 11 -5 0 -10 7 -10 15 0 8 -4 15 -8 15
-4 0 -15 12 -24 28 -23 37 -80 95 -158 162 -36 30 -67 58 -70 61 -12 13 -223
150 -226 146 -2 -2 25 -47 61 -101 35 -54 67 -107 70 -117 4 -11 11 -19 16
-19 5 0 9 -5 9 -12 0 -6 14 -41 31 -77 97 -204 117 -384 66 -587 -10 -40 -60
-138 -100 -197 -84 -124 -278 -296 -410 -363 -18 -9 -34 -20 -37 -23 -11 -15
-201 -93 -259 -107 -20 -4 -100 -24 -126 -31 -11 -2 -83 -6 -161 -8 -126 -2
-203 5 -319 30 -16 4 -36 7 -42 7 -7 1 -13 5 -13 9 0 4 -6 6 -12 6 -25 -2 -88
15 -88 24 0 5 -3 8 -7 7 -28 -6 -248 92 -364 161 -15 9 -53 31 -85 50 -33 19
-61 37 -64 40 -3 3 -39 28 -80 56 -41 27 -79 55 -85 60 -5 6 -27 23 -47 38
-50 36 -204 189 -260 257 -143 174 -259 418 -284 595 -2 17 -8 53 -12 80 -14
84 -6 285 14 378 2 9 6 27 9 40 4 18 13 58 21 90 1 4 3 9 4 12 1 3 3 8 4 13 4
17 28 89 36 107 5 11 29 65 53 120 71 159 153 319 213 415 18 30 41 70 50 88
9 17 20 32 25 32 5 0 9 7 9 15 0 8 5 15 10 15 6 0 10 5 10 10 0 13 149 212
212 284 215 246 478 446 742 562 173 77 377 137 545 160 25 3 57 8 71 10 156
25 535 20 750 -10 19 -3 62 -7 95 -11 33 -3 67 -8 75 -10 8 -2 35 -6 60 -9 70
-9 180 -29 280 -51 8 -2 15 -4 15 -5 0 -1 18 -4 39 -6 21 -3 47 -9 58 -15 10
-5 23 -7 28 -4 6 3 10 1 10 -5 0 -6 4 -9 9 -6 5 3 27 -1 50 -9 23 -8 43 -14
46 -15 3 0 6 0 8 -1 1 0 11 -2 23 -4 26 -5 289 -93 329 -110 17 -7 66 -27 110
-46 236 -98 537 -273 675 -392 8 -7 35 -28 60 -47 98 -75 315 -302 405 -425
16 -22 33 -41 37 -43 4 -2 8 -7 8 -12 0 -5 17 -35 38 -67 49 -74 84 -136 137
-243 40 -82 114 -259 120 -290 2 -8 8 -28 14 -43 6 -16 9 -33 5 -38 -3 -5 -1
-9 4 -9 5 0 9 -6 9 -12 1 -7 8 -40 18 -73 9 -33 17 -68 17 -77 -1 -10 4 -20 9
-23 5 -4 7 -10 4 -15 -3 -5 -1 -28 4 -52 5 -24 12 -63 15 -88 3 -25 8 -56 11
-70 3 -14 7 -71 10 -128 2 -57 6 -106 8 -110 7 -16 -8 -391 -18 -442 -2 -12
-7 -49 -10 -83 -3 -34 -10 -78 -15 -97 -5 -19 -11 -53 -14 -75 -3 -22 -10 -64
-16 -93 -7 -30 -13 -59 -14 -65 -1 -7 -5 -18 -9 -24 -5 -7 -6 -13 -3 -13 2 0
-4 -29 -14 -65 -10 -36 -19 -68 -19 -70 0 -3 -7 -30 -16 -60 -8 -30 -15 -56
-15 -57 1 -4 -87 -259 -101 -293 -7 -16 -13 -35 -15 -42 -4 -20 -105 -253
-153 -353 -25 -52 -45 -97 -46 -100 -3 -18 -130 -247 -187 -338 -164 -261
-325 -435 -531 -570 -78 -51 -232 -131 -265 -137 -9 -2 -18 -4 -19 -5 -2 -2
-6 -3 -10 -4 -5 -1 -12 -4 -18 -7 -5 -4 -23 -10 -40 -14 -16 -5 -34 -9 -40
-11 -158 -45 -276 -59 -495 -59 -144 0 -280 8 -340 19 -14 2 -52 7 -85 11 -32
4 -63 9 -67 11 -4 3 -22 7 -40 9 -18 2 -46 7 -63 10 -16 4 -39 8 -50 10 -46 7
-85 18 -85 24 0 4 17 15 38 26 20 11 60 33 87 49 143 82 297 166 305 166 6 0
10 5 10 10 0 6 4 10 9 10 5 0 42 19 81 43 40 23 91 53 113 66 61 35 246 159
257 172 3 3 32 28 65 55 107 86 238 212 325 314 25 29 53 62 63 74 26 30 52
63 97 126 22 30 46 62 53 70 17 20 137 208 137 216 0 3 8 18 19 32 21 30 129
241 162 317 45 102 109 271 109 286 0 9 3 19 8 23 4 4 7 11 8 14 0 4 3 14 7
22 3 8 9 29 13 45 4 17 9 35 10 40 2 6 17 63 33 127 28 111 33 139 47 241 3
23 7 53 10 67 22 129 22 514 0 581 -3 8 -7 33 -10 56 -12 96 -63 265 -111 369
-37 79 -117 214 -127 214 -4 0 -8 5 -8 12 0 36 -217 252 -355 354 -55 41 -105
78 -112 84 -7 5 -15 10 -18 10 -3 0 -24 12 -48 27 -23 14 -44 26 -47 25 -3 0
-12 5 -20 13 -13 11 -113 61 -240 118 -36 17 -193 76 -220 83 -8 2 -71 20
-140 39 -69 19 -135 37 -147 40 -82 18 -304 52 -393 61 -149 15 -591 8 -660
-11 -8 -2 -39 -7 -69 -10 -30 -4 -61 -8 -70 -10 -9 -2 -43 -9 -76 -15 -33 -7
-67 -14 -75 -18 -8 -3 -19 -4 -24 -3 -4 1 -14 -4 -22 -10 -8 -6 -14 -9 -14 -6
0 4 -18 0 -40 -8 -22 -8 -44 -15 -48 -16 -99 -22 -283 -102 -422 -182 -111
-65 -100 -57 -210 -147 -190 -155 -324 -372 -369 -600 -51 -255 -22 -432 97
-590 39 -51 153 -160 169 -160 4 0 16 -9 27 -19 23 -21 182 -111 206 -116 8
-2 34 -13 56 -24 119 -59 273 -72 353 -32 74 38 130 142 117 221 -3 22 -17 46
-39 66 -31 29 -116 68 -169 78 -66 12 -245 95 -322 149 -91 64 -187 188 -200
259 -3 13 -5 23 -6 23 -9 0 -4 139 5 176 16 59 65 169 76 169 5 0 9 7 9 15 0
8 5 15 10 15 6 0 10 5 10 11 0 12 38 55 115 131 53 52 202 155 299 207 33 17
65 36 73 42 7 6 13 9 13 5 0 -4 10 0 23 8 45 29 307 131 307 119 0 -3 6 -1 13
5 6 5 28 13 47 18 19 4 37 8 40 9 7 2 71 15 90 19 8 2 33 6 55 11 22 5 51 9
65 11 14 1 25 3 25 3 0 6 119 12 230 13 187 2 324 -15 517 -61 81 -20 267 -80
313 -101 46 -22 140 -63 145 -64 3 -1 47 -24 98 -50 98 -51 253 -151 312 -201
68 -58 211 -207 238 -248 15 -23 34 -50 42 -59 17 -18 100 -180 125 -243 18
-46 60 -193 69 -245 3 -19 8 -44 10 -55 20 -106 26 -349 12 -520 -4 -49 -8
-103 -9 -120 -2 -16 -6 -36 -10 -42 -5 -7 -6 -16 -3 -21 2 -4 0 -27 -5 -52 -5
-25 -12 -56 -14 -70 -7 -35 -13 -64 -15 -70 -1 -3 -2 -8 -1 -13 1 -4 -5 -23
-13 -42 -8 -19 -13 -35 -11 -35 11 0 -79 -238 -133 -350 -134 -281 -381 -600
-606 -785 -27 -22 -54 -45 -60 -50 -11 -11 -119 -93 -166 -128 -50 -35 -228
-143 -286 -172 -32 -16 -62 -34 -65 -38 -3 -5 -10 -9 -15 -9 -5 -1 -36 -13
-69 -28 -33 -14 -98 -41 -145 -59 -47 -19 -94 -37 -105 -42 -18 -7 -133 -42
-145 -44 -3 0 -11 -4 -17 -8 -7 -5 -13 -6 -13 -3 0 3 -11 1 -25 -4 -14 -5 -37
-12 -52 -15 -15 -2 -49 -9 -77 -15 -28 -6 -62 -13 -76 -15 -14 -3 -43 -8 -65
-10 -39 -5 -80 -12 -80 -15 0 0 -36 -3 -80 -6 -159 -12 -420 -6 -515 10 -14 3
-43 7 -65 10 -62 8 -133 23 -215 46 -41 11 -83 22 -93 24 -100 26 -301 115
-452 201 -66 38 -129 73 -140 80 -27 15 -129 75 -173 102 -21 13 -64 39 -97
58 -33 20 -69 41 -79 48 -235 147 -349 217 -352 217 -2 0 -26 15 -52 33 -26
18 -54 37 -62 41 -24 11 -50 28 -127 79 -39 26 -76 47 -82 47 -6 0 -11 4 -11
8 0 5 -12 15 -27 23 -16 8 -32 18 -38 22 -13 10 -236 153 -420 269 -55 34
-101 66 -103 70 -2 5 -7 8 -12 8 -5 0 -36 18 -69 40 -33 22 -64 40 -70 40 -5
0 -11 3 -13 8 -3 8 -174 117 -220 141 -16 8 -28 18 -28 23 0 4 -6 8 -13 8 -15
0 -103 56 -130 83 -62 62 -33 121 92 184 31 15 58 28 61 28 13 2 201 101 250
133 64 41 156 116 185 152 11 14 27 32 35 41 22 24 74 114 85 149 22 70 40
182 37 225 -9 108 -16 146 -37 219 -68 236 -172 386 -346 501 -95 64 -272 134
-374 150 -11 1 -36 6 -55 9 -19 4 -51 9 -70 11 -19 2 -51 6 -70 9 -37 7 -150
13 -400 21 -85 2 -200 7 -255 9 -115 6 -495 16 -743 20 -93 2 -174 6 -180 10
-6 3 -13 2 -17 -4 -4 -6 -10 -8 -15 -5 -5 3 -108 8 -227 10 -590 12 -1248 33
-1558 51 -204 11 -493 5 -570 -13 -50 -11 -377 -10 -446 2 -114 20 -130 24
-189 47 -103 41 -173 89 -261 178 -53 54 -119 142 -119 159 0 31 -58 41 -152
27 -62 -9 -61 -8 -83 -163 -2 -13 -6 -42 -10 -65 -9 -61 -21 -139 -30 -213 -6
-43 -23 -172 -30 -225 -3 -25 -8 -65 -10 -90 -3 -25 -7 -58 -9 -75 -7 -48 -17
-137 -20 -181 -2 -22 -5 -45 -8 -50 -15 -24 13 -53 64 -68 110 -32 123 -30
181 23 69 64 103 91 158 128 88 58 259 132 342 147 15 2 30 7 34 9 5 3 35 8
68 12 33 4 71 10 85 13 35 7 526 6 635 -2 210 -15 487 -6 595 20 30 7 135 7
170 0 84 -17 256 -60 263 -66 5 -4 2 -14 -5 -22 -7 -7 -17 -21 -23 -30 -44
-69 -149 -212 -203 -276 -46 -54 -162 -168 -194 -190 -12 -9 -32 -24 -42 -34
-11 -10 -23 -18 -27 -18 -4 0 -14 -6 -21 -13 -31 -30 -208 -126 -313 -168 -77
-32 -154 -57 -159 -52 -3 4 -6 0 -6 -7 0 -7 -3 -11 -6 -7 -3 3 -23 -1 -45 -8
-21 -8 -39 -12 -39 -8 0 3 -6 1 -12 -4 -7 -6 -20 -11 -28 -11 -8 0 -44 -8 -80
-17 -35 -9 -74 -18 -85 -20 -11 -2 -20 -4 -20 -5 0 -1 -9 -3 -20 -4 -17 -3
-121 -22 -211 -40 -12 -2 -39 -7 -60 -11 -60 -9 -91 -15 -204 -37 -58 -11
-116 -22 -130 -25 -14 -2 -61 -13 -105 -25 -44 -11 -87 -21 -95 -22 -8 -1 -35
-8 -60 -15 -25 -7 -52 -15 -60 -16 -8 -2 -15 -4 -15 -5 0 -2 -19 -7 -57 -15
-15 -3 -40 -10 -55 -16 -16 -6 -30 -10 -33 -10 -16 3 -209 -67 -288 -104 -158
-75 -275 -164 -383 -294 -76 -91 -193 -311 -166 -311 30 0 232 62 293 90 35
16 65 29 67 28 3 -1 85 37 237 110 146 69 267 123 289 127 9 2 17 4 19 5 1 2
5 3 10 4 4 2 33 10 64 20 31 9 70 19 85 22 15 3 36 7 46 10 78 24 378 3 461
-31 l29 -12 -93 -59 c-51 -33 -98 -65 -105 -71 -8 -7 -16 -13 -19 -13 -3 0
-22 -11 -43 -25 -21 -14 -45 -30 -53 -35 -8 -6 -60 -39 -115 -75 -55 -35 -105
-67 -111 -72 -18 -14 -48 -33 -64 -40 -8 -4 -17 -9 -20 -13 -3 -3 -30 -21 -60
-40 -30 -19 -120 -77 -200 -128 -80 -52 -165 -107 -190 -123 -25 -16 -52 -34
-60 -39 -87 -58 -183 -120 -185 -120 -1 0 -35 -22 -76 -48 -230 -151 -284
-186 -288 -183 -2 1 -7 -1 -10 -6 -9 -13 -100 -73 -112 -73 -5 0 -9 -4 -9 -10
0 -5 -4 -10 -8 -10 -5 0 -63 -36 -130 -80 -67 -44 -124 -80 -127 -80 -3 0 -11
-5 -18 -11 -7 -5 -59 -41 -117 -78 -58 -37 -139 -90 -180 -117 -41 -26 -86
-54 -100 -62 -13 -7 -27 -17 -30 -21 -3 -4 -16 -14 -28 -20 -28 -15 -322 -206
-338 -219 -6 -6 -26 -18 -45 -27 -19 -10 -36 -21 -39 -25 -3 -4 -16 -13 -29
-20 -14 -7 -30 -17 -35 -21 -6 -5 -45 -31 -86 -57 -41 -27 -121 -79 -177 -115
-57 -37 -107 -67 -112 -67 -5 0 -11 -4 -13 -8 -1 -4 -50 -38 -108 -75 -94 -60
-172 -116 -145 -104 16 7 148 49 166 52 35 7 749 249 989 335 140 51 260 93
265 94 12 2 71 24 100 37 11 5 58 22 105 38 47 16 198 68 335 116 138 48 255
88 260 89 6 1 33 10 60 19 28 9 52 17 55 16 3 0 28 8 56 20 29 11 55 17 58 14
3 -4 6 -1 6 6 0 7 5 9 10 6 6 -4 18 -1 27 7 9 7 17 12 17 10 1 -2 8 -1 16 2 8
3 31 9 50 15 19 5 138 39 264 75 127 36 246 69 265 72 20 4 44 11 53 15 9 5
34 11 55 15 21 3 63 11 93 19 30 8 69 17 85 21 17 4 32 8 35 9 6 1 67 13 100
20 14 3 70 13 125 24 55 11 118 22 140 25 22 3 51 8 65 10 29 5 146 23 210 32
54 8 83 11 175 19 39 3 86 8 105 10 177 23 757 24 871 0 14 -2 41 -7 60 -9 19
-3 34 -5 34 -6 0 -1 11 -3 25 -6 46 -8 187 -60 200 -74 3 -3 18 -12 33 -19 48
-25 142 -126 176 -191 33 -61 68 -166 76 -227 3 -18 9 -50 13 -70 5 -21 10
-182 12 -358 5 -560 12 -761 36 -970 3 -27 7 -68 9 -90 12 -115 35 -250 61
-348 9 -34 17 -66 18 -72 2 -5 8 -21 14 -35 6 -14 24 -59 41 -101 17 -42 36
-90 42 -105 7 -16 13 -31 13 -34 3 -10 76 -156 93 -185 27 -45 70 -85 93 -85
51 0 75 96 85 340 3 80 8 151 10 157 3 7 0 13 -5 13 -6 0 -6 9 0 24 5 13 6 27
3 30 -19 19 -18 1622 2 1831 15 166 70 291 150 340 44 27 56 30 129 29 89 -1
121 -10 274 -79 200 -88 574 -232 634 -244 5 -1 32 -10 60 -20 53 -19 164 -53
183 -57 6 -1 51 -14 101 -28 50 -15 101 -29 114 -31 12 -2 46 -11 74 -19 75
-22 323 -79 391 -90 11 -2 43 -9 70 -16 28 -6 65 -14 83 -16 18 -1 42 -6 52
-9 25 -8 59 -15 100 -20 19 -2 67 -11 105 -20 39 -8 75 -13 82 -11 6 3 14 2
18 -2 3 -3 16 -7 28 -9 12 -1 33 -4 47 -7 14 -3 42 -7 64 -10 21 -3 46 -7 55
-10 9 -3 39 -7 66 -11 28 -3 61 -7 75 -10 81 -14 109 -18 142 -19 21 0 38 -3
38 -6 0 -3 8 -6 18 -6 23 -1 132 -15 157 -21 11 -2 40 -6 65 -8 25 -3 56 -7
70 -9 14 -3 45 -8 70 -11 74 -9 115 -15 135 -19 11 -2 43 -7 70 -10 70 -9 114
-15 160 -21 22 -4 54 -8 70 -10 17 -2 53 -7 80 -11 28 -3 59 -8 70 -11 11 -2
34 -6 50 -7 28 -3 58 -7 150 -22 22 -3 54 -8 70 -9 17 -2 30 -4 30 -5 0 -1 11
-3 25 -5 60 -6 135 -17 141 -21 3 -1 28 -6 56 -9 28 -3 83 -12 122 -19 38 -7
73 -11 76 -8 3 3 5 0 5 -7 0 -7 4 -10 9 -7 8 5 65 -5 291 -49 14 -3 41 -8 60
-11 19 -3 51 -9 70 -14 33 -9 51 -12 118 -25 15 -3 41 -10 57 -15 17 -5 44
-11 60 -14 17 -2 31 -5 33 -6 2 -3 2 -3 57 -15 50 -10 48 -10 120 -30 33 -9
69 -18 80 -20 11 -2 39 -10 63 -19 23 -8 44 -15 47 -16 3 0 6 0 8 -1 1 0 9 -2
18 -4 9 -1 63 -17 120 -35 216 -66 216 -66 344 -96 17 -4 35 -8 40 -10 19 -5
190 -34 220 -38 213 -25 482 -26 635 -1 14 2 41 7 60 9 19 3 46 8 60 11 14 3
36 7 49 10 239 45 519 164 776 329 44 28 85 55 91 61 6 5 23 19 39 30 117 84
365 314 486 450 44 51 185 236 224 295 17 25 32 47 35 50 3 3 14 21 24 40 11
19 22 37 25 40 3 3 13 19 22 35 9 17 31 57 49 90 47 85 94 181 120 245 12 30
26 64 32 74 14 26 89 236 94 265 3 14 7 28 10 33 3 4 7 16 9 25 2 10 16 63 30
118 26 103 31 125 41 185 8 47 12 65 14 65 2 0 8 33 14 85 3 25 8 61 10 80 35
235 27 751 -14 985 -15 86 -34 186 -46 243 -4 24 -29 117 -55 212 -5 19 -11
42 -13 50 -10 37 -79 227 -92 252 -8 15 -15 31 -15 35 -10 67 -269 567 -301
581 -5 2 -8 10 -8 18 0 8 -4 14 -10 14 -5 0 -10 7 -10 15 0 8 -4 15 -10 15 -5
0 -10 5 -10 11 0 8 -25 45 -77 114 -186 244 -406 463 -647 643 -39 29 -78 59
-87 65 -39 30 -79 57 -84 57 -3 0 -26 15 -52 34 -90 63 -275 167 -437 245
-148 72 -193 93 -206 95 -3 1 -9 4 -15 8 -16 10 -368 136 -395 142 -29 6 -138
36 -160 44 -8 3 -24 6 -35 8 -11 2 -36 8 -55 13 -19 6 -53 13 -75 17 -22 4
-44 8 -50 10 -18 4 -79 16 -100 19 -11 2 -33 6 -50 8 -86 15 -124 20 -160 23
-22 1 -40 3 -40 4 0 9 -597 25 -606 16z m-4714 -2300 c44 -3 132 -8 195 -11
134 -7 227 -13 290 -20 306 -29 504 -123 608 -288 34 -55 75 -151 87 -207 36
-176 26 -332 -30 -440 -39 -76 -166 -167 -256 -184 -13 -3 -24 -5 -24 -6 0 -3
-39 -10 -95 -17 -70 -10 -280 -9 -390 1 -47 5 -105 9 -130 10 -25 1 -50 5 -55
7 -6 3 -77 4 -160 2 -450 -10 -589 -8 -655 10 -97 26 -180 70 -236 126 -70 69
-132 190 -147 288 -3 17 -7 35 -10 40 -17 28 -25 283 -12 372 4 25 7 47 6 48
0 2 7 22 16 45 26 67 62 116 113 153 80 59 131 67 432 69 147 1 270 5 273 8 3
3 27 4 53 3 26 -2 83 -6 127 -9z m-1608 -405 c32 -2 62 -73 78 -186 9 -68 10
-159 1 -174 -5 -7 -6 -15 -3 -18 9 -8 -23 -103 -46 -139 -21 -31 -64 -63 -97
-72 -8 -3 -43 -7 -77 -9 -60 -5 -160 16 -238 48 -16 7 -32 13 -35 14 -3 0 -32
14 -65 29 -33 16 -80 37 -104 48 l-44 19 34 32 c40 37 185 169 244 222 113
102 278 198 325 189 8 -1 20 -3 27 -3z m-542 -911 c32 -7 68 -14 79 -15 12 -2
35 -7 51 -11 17 -3 38 -7 47 -8 10 -1 21 -5 24 -9 4 -4 18 -7 30 -7 13 0 25
-4 28 -9 3 -4 19 -11 34 -14 91 -18 224 -100 276 -171 52 -70 70 -140 71 -271
0 -146 -22 -220 -82 -280 -66 -66 -133 -88 -308 -100 -124 -9 -208 -15 -277
-21 -37 -3 -102 -7 -145 -9 -91 -5 -195 -12 -273 -20 -63 -5 -185 -14 -280
-20 -36 -2 -90 -6 -120 -9 -117 -11 -206 -18 -269 -21 -36 -2 -95 -6 -131 -9
-130 -11 -371 -30 -520 -41 -109 -8 -223 -17 -260 -20 -19 -2 -80 -6 -135 -10
-55 -4 -104 -9 -109 -12 -5 -4 -6 -1 -2 6 4 6 40 33 79 59 40 25 77 50 82 55
12 10 142 102 169 119 11 7 27 20 36 28 9 8 38 31 66 50 27 19 51 38 52 42 2
4 8 8 14 8 6 0 27 14 47 30 20 17 41 34 46 38 6 4 78 57 160 118 360 266 583
393 838 478 107 35 122 39 262 60 97 15 338 13 420 -4z m1540 -209 c39 -7 84
-14 100 -17 17 -2 41 -7 55 -9 14 -3 36 -7 50 -10 122 -22 384 -88 388 -97 2
-5 7 -6 11 -4 10 6 320 -97 406 -135 11 -4 70 -29 130 -55 104 -43 352 -164
440 -214 155 -87 317 -182 325 -190 3 -3 16 -11 30 -19 70 -41 134 -82 150
-96 9 -8 22 -15 28 -15 7 0 12 -4 12 -10 0 -5 5 -10 12 -10 6 0 20 -7 30 -17
10 -9 27 -21 37 -27 16 -9 104 -69 186 -126 48 -34 240 -174 245 -180 3 -3 12
-9 22 -15 18 -11 170 -126 178 -135 3 -3 23 -18 45 -35 22 -16 46 -35 53 -42
7 -7 16 -13 20 -13 4 0 21 -13 38 -28 17 -15 43 -36 58 -47 25 -18 245 -192
255 -201 2 -2 -7 -1 -20 1 -13 2 -49 6 -79 9 -30 3 -66 7 -80 10 -14 2 -45 7
-70 10 -68 10 -106 16 -205 32 -49 9 -99 17 -110 19 -18 2 -149 27 -215 40
-67 13 -207 43 -235 49 -5 2 -21 6 -35 9 -14 4 -36 9 -50 11 -23 4 -377 94
-460 117 -19 5 -42 11 -51 13 -63 16 -422 127 -619 193 -91 30 -169 56 -175
58 -5 1 -17 5 -25 8 -8 4 -60 22 -115 41 -55 19 -131 47 -170 61 -38 14 -74
28 -80 29 -5 2 -21 8 -35 13 -14 6 -45 17 -70 26 -67 23 -212 76 -235 86 -30
13 -109 41 -120 42 -5 0 -21 7 -35 14 -14 8 -81 34 -150 60 -69 25 -140 56
-158 68 -48 32 -82 109 -84 187 -1 78 3 105 37 260 9 41 19 91 22 110 9 60 52
139 86 158 59 32 104 34 232 13z"/>
</g>
</svg>
