<?xml version="1.0" encoding="utf-8"?>
<!-- Generator: Adobe Illustrator 25.0.0, SVG Export Plug-In . SVG Version: 6.00 Build 0)  -->
<svg version="1.1" xmlns="http://www.w3.org/2000/svg" xmlns:xlink="http://www.w3.org/1999/xlink" x="0px" y="0px"
	 viewBox="0 0 800 398.64" style="enable-background:new 0 0 800 398.64;" xml:space="preserve">
<style type="text/css">
	.st0{display:none;}
	.st1{display:inline;}
</style>
<g id="Layer_1" class="st0">
	<path class="st1" d="M466.97,158.97c0.01-2.81-0.36-3.66-3.51-3.65c-42.27,0.14-84.54,0.13-126.81,0.03
		c-2.81-0.01-3.67,0.35-3.65,3.5c0.18,25.94,0.15,51.88,0.03,77.82c-0.01,2.81,0.36,3.68,3.51,3.65c21.13-0.19,42.27-0.1,63.4-0.1
		c21.14,0,42.27-0.06,63.41,0.07c2.81,0.02,3.67-0.36,3.65-3.51C466.82,210.85,466.85,184.91,466.97,158.97z M456.75,207.05
		c-5.62,6.1-12.51,8.03-20.41,5.51c-14.07-4.49-29.39-3.18-43.06-9.53c-3.49-1.63-3.93,1.23-3.95,3.66
		c-0.09,7.9-0.04,15.81-0.04,23.72c-0.91,0.03-1.83,0.06-2.74,0.08c-0.4-7.7-1.15-15.41-1.09-23.1c0.04-5.1-1.97-6.51-6.74-6.63
		c-13.67-0.33-25.39,5.89-38.23,9.69c9.21-5.95,18.41-11.91,28.4-18.37c-5.21-1.64-7.94,2.08-12.42,2.9
		c1.78-4.54,5.4-5.16,8.66-6.03c5.05-1.35,10.71-1.03,14.55-5.52c0.7-0.81,1.27-1.73,1.9-2.6c-1.09-0.19-2.24-0.7-3.25-0.51
		c-5.04,0.98-10.78-1.74-15.19,2.81c-0.21,0.22-1.58-0.24-1.57-0.3c0.28-2.77,0.63-5.54,1.08-8.29c0.03-0.14,1.37-0.34,1.47-0.16
		c2.75,4.82,7.43,2.8,11.3,3.02c8.63,0.48,17.28,0.42,25.92,0.82c3.57,0.16,7.04,1.12,8.16,5.27c1.06,3.92-1.21,5.72-4.46,7.14
		c-2.54,1.12-0.54,1.87,0.5,2.52c5.49,3.45,10.87,7.07,16.5,10.27c10.85,6.18,26.33-1.5,28.08-13.89
		c0.77-5.42-0.25-10.21-5.66-13.19c-5.99-3.31-12.09-3.11-17.48,0.48c-2.71,1.82-4.87,5.72,0.69,7.88c1,0.39,2.74,0.48,2.15,2.05
		c-0.57,1.53-2.25,1.24-3.48,0.71c-2.38-1.02-4.53-2.54-4.46-5.41c0.1-3.64,2.19-6.13,5.43-7.74c8.18-4.05,20.78-1.21,24.77,5.62
		c4.06,6.95-0.35,19.81-8.7,25.26c-1.5,0.98-3.1,1.8-5.88,3.39c8.63,2,13.74,0.06,17.4-6.83c10.19-19.15,1.85-34.69-19.68-35.93
		c-9.32-0.54-14.87,4.86-18.27,12.74c-2.29,5.31-0.24,10.02,4.17,13.16c4.31,3.05,9.31,4.85,14.25,0.98
		c3.32-2.59,4.03-5.87,0.57-10.5c4.33,2.49,5.61,5.23,4.03,8.42c-2.56,5.17-6.17,9.41-12.9,7.46c-6.64-1.93-12.23-5.68-12.64-13.09
		c-0.49-8.63,2.78-16.15,10.94-20.27c9.92-5.01,25.54-0.37,32.6,9.24C465.33,183.97,464.83,198.29,456.75,207.05z"/>
	<path class="st1" d="M417.52,205.49c-10.79-1.27-19-4.52-27.21-7.59c-1.87-0.7-0.94-2.93-0.68-4.51c0.33-1.96,1.7-1.46,3.06-1.25
		C401.84,193.59,408.97,198.7,417.52,205.49z"/>
	<path class="st1" d="M406,185.7c0.25,4.56-4.84,3.78-7.81,3.51c-3.55-0.33-8.99,1.9-9.32-4.91c-0.27-5.49,3.9-3.49,6.79-4.06
		C399.73,180.8,405.67,179.51,406,185.7z"/>
	<path class="st1" d="M385.23,194.45c0.01,1.82-0.74,2.72-2.61,2.84c-6.19,0.42-12.37,0.92-19.96,1.49
		c6.92-4.33,11.47-10.59,19.89-7.79C384.53,191.65,385.22,192.56,385.23,194.45z"/>
	<path class="st1" d="M385.09,185.36c0.01,0.34,0,0.66-0.04,0.96c-0.16,1.21-0.79,2.02-2.45,1.7c-1.06-0.2-2.04-0.78-3.05-1.19
		c1.34-1.11,2.53-2.52,4.05-3.25c1.01-0.48,1.25,0.13,1.36,0.84C385.01,184.74,385.03,185.09,385.09,185.36z"/>
</g>
<g id="Layer_2">
	<g>
		<path d="M766.1,73.57C720.06,10.9,618.2-19.36,553.51,13.31c-53.21,26.87-74.54,75.91-71.34,132.18
			c2.67,48.32,39.13,72.78,82.43,85.36c43.89,12.72,67.43-14.93,84.12-48.65c10.3-20.8,1.96-38.67-26.28-54.91
			c22.56,30.19,17.93,51.58-3.72,68.47c-32.21,25.24-64.82,13.5-92.93-6.39c-28.76-20.48-42.13-51.19-27.19-85.82
			c22.17-51.39,58.36-86.6,119.14-83.08c140.4,8.09,194.79,109.42,128.34,234.3c-23.87,44.93-57.19,57.58-113.47,44.54
			c18.13-10.37,28.56-15.72,38.34-22.11c54.45-35.54,83.21-119.4,56.73-164.72c-26.02-44.54-108.19-63.06-161.53-36.65
			c-21.13,10.5-34.76,26.74-35.41,50.47c-0.46,18.72,13.56,28.63,29.08,35.28c8.02,3.46,18.98,5.35,22.69-4.63
			c3.85-10.24-7.5-10.82-14.02-13.37c-36.26-14.09-22.17-39.52-4.5-51.39C599.16,68.81,638.94,67.5,678,89.09
			c35.28,19.43,41.93,50.67,36.91,86.01c-11.41,80.8-112.36,130.88-183.11,90.58c-36.71-20.87-71.8-44.47-107.6-66.97
			c-6.78-4.24-19.82-9.13-3.26-16.43c21.19-9.26,36-21,29.08-46.56c-7.3-27.06-29.93-33.32-53.21-34.37
			c-56.34-2.61-112.75-2.22-169.03-5.35c-25.24-1.43-55.76,11.74-73.69-19.69c-0.65-1.17-9.39,0.13-9.59,1.04
			c-2.93,17.93-5.22,36-7.04,54.06c-0.07,0.39,8.87,3.39,10.24,1.96c28.76-29.67,66.19-11.93,99.06-18.32
			c6.59-1.24,14.09,2.09,21.19,3.33c-4.11,5.67-7.83,11.67-12.39,16.95c-25.04,29.28-61.95,27.19-94.88,36
			c-21.26,5.67-44.87,9.72-56.47,39.32c29.21-5.35,47.02-29.61,80.99-18.91C120.05,233.86,60.06,272.72,0,311.52
			c83.73-24.78,160.16-65.34,249.3-63.19c31.11,0.78,44.21,9.98,43.95,43.24c0,19.63-0.31,62.61,7.11,82.09s20.69,51.26,17.87-14.82
			c-0.79-14.58-0.33-20.31,0.26-71.83c0.13-15.85,3-34.5,25.76-23.87c89.14,41.41,189.05,32.87,280.8,62.15
			c51.52,16.43,96.45,3.85,133.1-35.93C810.84,232.23,814.1,138.84,766.1,73.57z M281.13,136.3c6.59-3.13,8.15,0.85,8.87,5.48
			c0.39,2.09,0.52,4.37,0.91,6.13c0.07,2.22-0.06,4.3-0.33,6.26c-1.04,7.89-5.15,13.17-15.98,11.09c-6.91-1.3-13.3-5.09-19.89-7.76
			C263.45,150.26,271.21,141.06,281.13,136.3z M274.74,225.71c-40.37,2.74-80.67,6-130.16,9.72c45.13-28.24,74.8-69.06,129.71-50.8
			c12.91,4.3,17.41,10.24,17.48,22.56C291.82,219.05,286.93,224.92,274.74,225.71z M359.77,114.52
			c26.54,3.65,65.28-4.76,67.43,35.61c1.63,29.74-31.56,24.65-50.93,22.89c-23.15-2.15-58.62,12.39-60.78-32.02
			C313.73,105.2,340.93,118.24,359.77,114.52z M324.88,229.68c-12.19-4.56-6.13-19.11-4.43-29.41c2.15-12.78,11.09-9.52,19.95-8.15
			c59.67,9.46,106.16,42.78,161.92,87.06C431.96,270.9,378.42,249.7,324.88,229.68z"/>
	</g>
	<g>
		<path d="M766.1,73.57C720.06,10.9,618.2-19.36,553.51,13.31c-53.21,26.87-74.54,75.91-71.34,132.18
			c2.67,48.32,39.13,72.78,82.43,85.36c43.89,12.72,67.43-14.93,84.12-48.65c10.3-20.8,1.96-38.67-26.28-54.91
			c22.56,30.19,17.93,51.58-3.72,68.47c-32.21,25.24-64.82,13.5-92.93-6.39c-28.76-20.48-42.13-51.19-27.19-85.82
			c22.17-51.39,58.36-86.6,119.14-83.08c140.4,8.09,194.79,109.42,128.34,234.3c-23.87,44.93-57.19,57.58-113.47,44.54
			c18.13-10.37,28.56-15.72,38.34-22.11c54.45-35.54,83.21-119.4,56.73-164.72c-26.02-44.54-108.19-63.06-161.53-36.65
			c-21.13,10.5-34.76,26.74-35.41,50.47c-0.46,18.72,13.56,28.63,29.08,35.28c8.02,3.46,18.98,5.35,22.69-4.63
			c3.85-10.24-7.5-10.82-14.02-13.37c-36.26-14.09-22.17-39.52-4.5-51.39C599.16,68.81,638.94,67.5,678,89.09
			c35.28,19.43,41.93,50.67,36.91,86.01c-11.41,80.8-112.36,130.88-183.11,90.58c-36.71-20.87-71.8-44.47-107.6-66.97
			c-6.78-4.24-19.82-9.13-3.26-16.43c21.19-9.26,36-21,29.08-46.56c-7.3-27.06-29.93-33.32-53.21-34.37
			c-56.34-2.61-112.75-2.22-169.03-5.35c-25.24-1.43-55.76,11.74-73.69-19.69c-0.65-1.17-9.39,0.13-9.59,1.04
			c-2.93,17.93-5.22,36-7.04,54.06c-0.07,0.39,8.87,3.39,10.24,1.96c28.76-29.67,66.19-11.93,99.06-18.32
			c6.59-1.24,14.09,2.09,21.19,3.33c-4.11,5.67-7.83,11.67-12.39,16.95c-25.04,29.28-61.95,27.19-94.88,36
			c-21.26,5.67-44.87,9.72-56.47,39.32c29.21-5.35,47.02-29.61,80.99-18.91C120.05,233.86,60.06,272.72,0,311.52
			c83.73-24.78,160.16-65.34,249.3-63.19c31.11,0.78,44.21,9.98,43.95,43.24c0,19.63-0.31,62.61,7.11,82.09s20.69,51.26,17.87-14.82
			c-0.79-14.58-0.33-20.31,0.26-71.83c0.13-15.85,3-34.5,25.76-23.87c89.14,41.41,189.05,32.87,280.8,62.15
			c51.52,16.43,96.45,3.85,133.1-35.93C810.84,232.23,814.1,138.84,766.1,73.57z M281.13,136.3c6.59-3.13,8.15,0.85,8.87,5.48
			c0.39,2.09,0.52,4.37,0.91,6.13c0.07,2.22-0.06,4.3-0.33,6.26c-1.04,7.89-5.15,13.17-15.98,11.09c-6.91-1.3-13.3-5.09-19.89-7.76
			C263.45,150.26,271.21,141.06,281.13,136.3z M274.74,225.71c-40.37,2.74-80.67,6-130.16,9.72c45.13-28.24,74.8-69.06,129.71-50.8
			c12.91,4.3,17.41,10.24,17.48,22.56C291.82,219.05,286.93,224.92,274.74,225.71z M359.77,114.52
			c26.54,3.65,65.28-4.76,67.43,35.61c1.63,29.74-31.56,24.65-50.93,22.89c-23.15-2.15-58.62,12.39-60.78-32.02
			C313.73,105.2,340.93,118.24,359.77,114.52z M324.88,229.68c-12.19-4.56-6.13-19.11-4.43-29.41c2.15-12.78,11.09-9.52,19.95-8.15
			c59.67,9.46,106.16,42.78,161.92,87.06C431.96,270.9,378.42,249.7,324.88,229.68z"/>
	</g>
</g>
</svg>
